<svg width="29" height="21" viewBox="0 0 29 21" fill="none" xmlns="http://www.w3.org/2000/svg">
<path d="M24.2817 1.75875C22.4262 0.937125 20.4422 0.340005 18.368 0C18.1132 0.435875 17.8156 1.02214 17.6104 1.4885C15.4055 1.17468 13.2208 1.17468 11.0564 1.4885C10.8512 1.02214 10.5469 0.435875 10.2899 0C8.2134 0.340005 6.22711 0.939319 4.3716 1.7631C0.629002 7.11553 -0.385553 12.335 0.121725 17.4804C2.60401 19.2347 5.00964 20.3005 7.37468 20.9978C7.95862 20.2372 8.47941 19.4287 8.92807 18.5766C8.07359 18.2693 7.25519 17.8901 6.48189 17.4499C6.68704 17.3061 6.88771 17.1557 7.08159 17.0009C11.7981 19.0887 16.9228 19.0887 21.583 17.0009C21.7792 17.1557 21.9798 17.3061 22.1827 17.4499C21.4071 17.8923 20.5865 18.2715 19.732 18.5788C20.1807 19.4287 20.6992 20.2394 21.2854 21C23.6527 20.3026 26.0606 19.2369 28.5429 17.4804C29.1381 11.5156 27.5261 6.34404 24.2817 1.75875ZM9.57063 14.316C8.15477 14.316 6.99365 13.0651 6.99365 11.5417C6.99365 10.0184 8.12998 8.76528 9.57063 8.76528C11.0113 8.76528 12.1724 10.0162 12.1476 11.5417C12.1499 13.0651 11.0113 14.316 9.57063 14.316ZM19.094 14.316C17.6781 14.316 16.517 13.0651 16.517 11.5417C16.517 10.0184 17.6533 8.76528 19.094 8.76528C20.5346 8.76528 21.6957 10.0162 21.6709 11.5417C21.6709 13.0651 20.5346 14.316 19.094 14.316Z" fill="#E1E1E2" fill-opacity="0.5"/>
</svg>
